<svg width="43" height="41" viewBox="0 0 43 41" fill="none" xmlns="http://www.w3.org/2000/svg">
<path d="M17.4919 2.37415C19.4915 -0.306884 23.5085 -0.306884 25.5081 2.37415L29.8376 8.17939C30.459 9.01253 31.3245 9.63134 32.3139 9.94975L39.1372 12.1457C42.3891 13.1923 43.6572 17.1192 41.6316 19.8701L37.5049 25.4742C36.8755 26.329 36.5344 27.362 36.5312 28.4235L36.5095 35.4285C36.4991 38.8005 33.2221 41.1956 30.0061 40.1817L23.0034 37.974C22.0249 37.6655 20.9751 37.6655 19.9966 37.974L12.9939 40.1817C9.77789 41.1956 6.5009 38.8005 6.49048 35.4285L6.46884 28.4235C6.46556 27.362 6.12451 26.329 5.49506 25.4742L1.36837 19.8701C-0.657237 17.1192 0.610883 13.1923 3.86278 12.1457L10.6861 9.94975C11.6755 9.63134 12.541 9.01253 13.1624 8.17939L17.4919 2.37415Z" fill="#FFEBCE"/>
</svg>
